<svg width="734" height="836" viewBox="0 0 734 836" fill="none" xmlns="http://www.w3.org/2000/svg">
<path d="M671.294 39.886L545.652 9.82671C526.164 5.16429 507.439 19.9379 507.439 39.9759V328.841C507.439 333.002 508.276 337.121 509.902 340.951L559.897 458.757C563.345 466.881 575.456 464.418 575.456 455.592V132.768C575.456 118.144 585.676 105.509 599.977 102.452L670.718 87.3328C681.94 84.9344 689.96 75.0196 689.96 63.5442C689.96 52.2898 682.24 42.5047 671.294 39.886Z" fill="#41C3D3"/>
<path d="M716.5 475.266C716.5 664.044 560.348 817.661 367 817.661C173.652 817.661 17.5 664.044 17.5 475.266C17.5 286.487 173.652 132.871 367 132.871C560.348 132.871 716.5 286.487 716.5 475.266Z" stroke="#41C3D3" stroke-width="35"/>
<path d="M634.292 475.266C634.292 619.521 514.945 737.044 367 737.044C219.055 737.044 99.708 619.521 99.708 475.266C99.708 331.011 219.055 213.487 367 213.487C514.945 213.487 634.292 331.011 634.292 475.266Z" stroke="#8FD484" stroke-width="35"/>
<path d="M436.461 475.266C436.461 511.521 406.233 542.472 367 542.472C327.767 542.472 297.539 511.521 297.539 475.266C297.539 439.011 327.767 408.059 367 408.059C406.233 408.059 436.461 439.011 436.461 475.266Z" stroke="#F04E4B" stroke-width="94"/>
<path d="M544.977 475.266C544.977 570.801 465.841 649.226 367 649.226C268.159 649.226 189.023 570.801 189.023 475.266C189.023 379.731 268.159 301.305 367 301.305C465.841 301.305 544.977 379.731 544.977 475.266Z" stroke="#41C3D3" stroke-width="59"/>
</svg>
